<?xml version="1.0" standalone="no"?><!DOCTYPE svg PUBLIC "-//W3C//DTD SVG 1.1//EN" "http://www.w3.org/Graphics/SVG/1.1/DTD/svg11.dtd"><svg t="1643096611235" class="icon" viewBox="0 0 1024 1024" version="1.1" xmlns="http://www.w3.org/2000/svg" p-id="1178" xmlns:xlink="http://www.w3.org/1999/xlink" width="200" height="200"><defs><style type="text/css"></style></defs><path d="M505.40820338 136.26757812c-203.55468725 0-369.14062525 165.63867188-369.14062525 369.14062526 0 203.55468725 165.58593725 369.14062525 369.14062525 369.14062449 203.50195338 0 369.14062525-165.58593725 369.14062449-369.14062449 0-203.50195338-165.63867188-369.14062525-369.14062449-369.14062525m0 39.55078125a329.95898412 329.95898412 0 0 1 329.58984324 329.589844 329.95898412 329.95898412 0 0 1-329.58984324 329.58984324 329.95898412 329.95898412 0 0 1-329.589844-329.58984324 329.95898412 329.95898412 0 0 1 329.589844-329.589844" fill="#515151" p-id="1179"></path><path d="M387.17773437 464.96093725a19.77539063 19.77539063 0 0 1 0-39.55078125h236.46093725a19.77539063 19.77539063 0 0 1 0 39.55078125H387.17773437z" fill="#515151" p-id="1180"></path><path d="M485.63281275 447.24218725a19.77539063 19.77539063 0 0 1 39.55078125 0v224.96484375a19.77539063 19.77539063 0 1 1-39.55078125 0V447.24218725z" fill="#515151" p-id="1181"></path><path d="M387.17773437 578.65625025a19.77539063 19.77539063 0 0 1 0-39.55078125h236.46093725a19.77539063 19.77539063 0 0 1 0 39.55078125H387.17773437zM539.79101537 455.94335912a19.77539063 19.77539063 0 0 1-30.32226537-25.41796849l87.69726588-104.57226563a19.77539063 19.77539063 0 0 1 30.32226537 25.4179685L539.79101537 455.94335912z" fill="#515151" p-id="1182"></path><path d="M383.32812475 351.31835963a19.77539063 19.77539063 0 0 1 30.2695315-25.41796926l87.74999975 104.57226563a19.77539063 19.77539063 0 0 1-30.32226537 25.41796925L383.32812475 351.31835963z" fill="#515151" p-id="1183"></path></svg>