<?xml version="1.0" standalone="no"?><!DOCTYPE svg PUBLIC "-//W3C//DTD SVG 1.1//EN" "http://www.w3.org/Graphics/SVG/1.1/DTD/svg11.dtd"><svg t="1643096609185" class="icon" viewBox="0 0 1024 1024" version="1.1" xmlns="http://www.w3.org/2000/svg" p-id="1028" xmlns:xlink="http://www.w3.org/1999/xlink" width="200" height="200"><defs><style type="text/css"></style></defs><path d="M317.12 566.02666667v148.32a24 24 0 1 0 48 0v-148.32a24 24 0 1 0-48 0zM282.08 422.50666667L478.4 285.70666667l116.64 127.2a25.44 25.44 0 0 0 6.24 4.8h17.76a25.44 25.44 0 0 0 7.2-3.36l205.92-144a25.92 25.92 0 0 0-29.76-42.72l-192 132.96-108.48-126.24a25.92 25.92 0 0 0-33.6-3.36 24.96 24.96 0 0 0-6.72 2.88l-209.28 144a25.92 25.92 0 0 0 29.76 42.72zM460.64 465.22666667v249.12a24 24 0 1 0 48 0V465.22666667a24 24 0 1 0-48 0zM745.76 465.22666667v249.12a24 24 0 1 0 48 0V465.22666667a24 24 0 1 0-48 0zM603.68 566.02666667v148.32a24 24 0 1 0 48 0v-148.32a24 24 0 1 0-48 0z" fill="" p-id="1029"></path><path d="M873.44 808.90666667H302.72a96 96 0 0 1-96-96V178.66666667a24 24 0 0 0-48 0v534.24a144 144 0 0 0 144 144h570.72a24 24 0 1 0 0-48z" fill="" p-id="1030"></path></svg>