<?xml version="1.0" standalone="no"?><!DOCTYPE svg PUBLIC "-//W3C//DTD SVG 1.1//EN" "http://www.w3.org/Graphics/SVG/1.1/DTD/svg11.dtd"><svg t="1643096605982" class="icon" viewBox="0 0 1024 1024" version="1.1" xmlns="http://www.w3.org/2000/svg" p-id="878" xmlns:xlink="http://www.w3.org/1999/xlink" width="200" height="200"><defs><style type="text/css"></style></defs><path d="M848.61745068 456.37854981l-280.24293137-280.24590757a112.00489893 112.00489893 0 0 0-79.23001931-32.75999698L255.26443555 143.40538754h-0.01488345C193.34905283 143.40538754 143.10773166 193.4591861 143.10773166 255.37159097v233.74016675a112.13586804 112.13586804 0 0 0 32.86120001 79.26573779l280.34115738 280.35008762a112.0793129 112.0793129 0 0 0 158.50766437 0l233.79969726-233.8116037c43.77623758-43.7792146 43.77623758-114.76119204 0-158.53742962z m-37.25162265 121.28282995l-233.79969809 233.81160452a59.37935449 59.37935449 0 0 1-83.9835824 0l-280.32627474-280.35008762A59.48055752 59.48055752 0 0 1 195.79280743 489.1087807V255.37159097A59.34363602 59.34363602 0 0 1 255.2465759 196.09046331l233.88006445-0.03274227a59.23350357 59.23350357 0 0 1 41.96946725 17.3473797l280.24590757 280.23697815a59.41209677 59.41209677 0 0 1 0.02381286 84.01930087z" fill="" p-id="879"></path><path d="M406.53311053 301.06175595c-58.25123933 0-105.47135459 47.22011527-105.47135458 105.47135458S348.28187122 511.9985119 406.53311053 511.9985119s105.46837756-47.22011527 105.46837757-105.46837839S464.77839663 301.06175595 406.53311053 301.06175595z m37.32305961 142.79143799a52.78330178 52.78330178 0 1 1 15.45726599-37.32008341 52.43802182 52.43802182 0 0 1-15.46024219 37.32008341z" fill="" p-id="880"></path></svg>